<svg xmlns="http://www.w3.org/2000/svg" xmlns:xlink="http://www.w3.org/1999/xlink" width="320" zoomAndPan="magnify" viewBox="0 0 240 239.999995" height="320" preserveAspectRatio="xMidYMid meet" version="1.0"><defs><clipPath id="c70c1ec299"><path d="M 7.011719 96 L 88 96 L 88 195 L 7.011719 195 Z M 7.011719 96 " clip-rule="nonzero"/></clipPath><clipPath id="edc3be583e"><path d="M 115 39.675781 L 232.761719 39.675781 L 232.761719 200.175781 L 115 200.175781 Z M 115 39.675781 " clip-rule="nonzero"/></clipPath><clipPath id="1945d85c48"><path d="M 73 75 L 170 75 L 170 200.175781 L 73 200.175781 Z M 73 75 " clip-rule="nonzero"/></clipPath></defs><rect x="-24" width="288" fill="#ffffff" y="-23.999999" height="287.999994" fill-opacity="1"/><rect x="-24" width="288" fill="#ffffff" y="-23.999999" height="287.999994" fill-opacity="1"/><g clip-path="url(#c70c1ec299)"><path fill="#5c1cf8" d="M 21.359375 100.601562 C 22.171875 100.132812 23 99.707031 23.851562 99.320312 C 24.703125 98.933594 25.570312 98.585938 26.457031 98.285156 C 27.34375 97.984375 28.242188 97.726562 29.152344 97.511719 C 30.0625 97.300781 30.980469 97.132812 31.90625 97.007812 C 32.835938 96.882812 33.765625 96.808594 34.699219 96.773438 C 35.632812 96.742188 36.566406 96.757812 37.5 96.816406 C 38.433594 96.875 39.363281 96.980469 40.285156 97.132812 C 41.207031 97.285156 42.121094 97.480469 43.027344 97.71875 C 43.929688 97.960938 44.820312 98.246094 45.695312 98.574219 C 46.570312 98.902344 47.429688 99.269531 48.269531 99.683594 C 49.109375 100.09375 49.925781 100.546875 50.71875 101.039062 C 51.515625 101.53125 52.285156 102.0625 53.027344 102.628906 C 53.769531 103.199219 54.484375 103.800781 55.167969 104.4375 C 55.851562 105.078125 56.503906 105.746094 57.121094 106.449219 C 57.738281 107.148438 58.320312 107.878906 58.867188 108.640625 C 59.414062 109.398438 59.921875 110.183594 60.390625 110.992188 L 83.941406 151.851562 C 84.410156 152.664062 84.839844 153.492188 85.226562 154.34375 C 85.613281 155.195312 85.957031 156.066406 86.257812 156.949219 C 86.558594 157.835938 86.816406 158.734375 87.03125 159.644531 C 87.242188 160.558594 87.410156 161.476562 87.535156 162.402344 C 87.65625 163.332031 87.734375 164.261719 87.765625 165.199219 C 87.796875 166.132812 87.785156 167.066406 87.722656 168 C 87.664062 168.933594 87.558594 169.863281 87.40625 170.785156 C 87.253906 171.707031 87.058594 172.621094 86.816406 173.527344 C 86.574219 174.429688 86.289062 175.320312 85.960938 176.195312 C 85.632812 177.070312 85.261719 177.929688 84.847656 178.769531 C 84.433594 179.609375 83.980469 180.425781 83.488281 181.222656 C 82.996094 182.015625 82.464844 182.785156 81.894531 183.527344 C 81.324219 184.269531 80.722656 184.984375 80.082031 185.667969 C 79.441406 186.347656 78.773438 187 78.070312 187.617188 C 77.367188 188.234375 76.632812 188.816406 75.875 189.363281 C 75.113281 189.90625 74.328125 190.414062 73.519531 190.882812 C 72.707031 191.351562 71.878906 191.78125 71.023438 192.167969 C 70.171875 192.554688 69.300781 192.898438 68.414062 193.199219 C 67.527344 193.5 66.628906 193.757812 65.71875 193.972656 C 64.804688 194.1875 63.882812 194.355469 62.957031 194.476562 C 62.027344 194.601562 61.09375 194.675781 60.160156 194.707031 C 59.222656 194.738281 58.289062 194.722656 57.351562 194.664062 C 56.417969 194.601562 55.488281 194.496094 54.566406 194.34375 C 53.640625 194.191406 52.726562 193.996094 51.820312 193.753906 C 50.917969 193.511719 50.027344 193.222656 49.148438 192.894531 C 48.273438 192.566406 47.414062 192.191406 46.574219 191.777344 C 45.734375 191.363281 44.917969 190.910156 44.121094 190.414062 C 43.324219 189.921875 42.554688 189.386719 41.8125 188.816406 C 41.070312 188.25 40.355469 187.644531 39.671875 187.003906 C 38.988281 186.363281 38.339844 185.691406 37.722656 184.984375 C 37.105469 184.28125 36.523438 183.546875 35.976562 182.785156 C 35.433594 182.027344 34.925781 181.238281 34.457031 180.429688 L 10.890625 139.632812 C 10.421875 138.820312 9.996094 137.988281 9.613281 137.136719 C 9.226562 136.285156 8.882812 135.414062 8.582031 134.527344 C 8.285156 133.640625 8.027344 132.742188 7.816406 131.832031 C 7.605469 130.921875 7.4375 130 7.316406 129.074219 C 7.195312 128.144531 7.117188 127.214844 7.089844 126.277344 C 7.058594 125.34375 7.074219 124.410156 7.136719 123.476562 C 7.195312 122.542969 7.304688 121.613281 7.457031 120.691406 C 7.609375 119.765625 7.808594 118.855469 8.050781 117.949219 C 8.292969 117.046875 8.578125 116.15625 8.90625 115.28125 C 9.238281 114.40625 9.609375 113.546875 10.023438 112.707031 C 10.4375 111.871094 10.890625 111.054688 11.386719 110.257812 C 11.878906 109.464844 12.410156 108.695312 12.980469 107.953125 C 13.550781 107.210938 14.15625 106.5 14.796875 105.816406 C 15.433594 105.132812 16.105469 104.480469 16.808594 103.863281 C 17.511719 103.246094 18.246094 102.667969 19.003906 102.121094 C 19.765625 101.578125 20.550781 101.070312 21.359375 100.601562 Z M 21.359375 100.601562 " fill-opacity="1" fill-rule="evenodd"/></g><path fill="#5c1cf8" d="M 112.921875 79.109375 C 112.113281 78.640625 111.28125 78.214844 110.429688 77.828125 C 109.574219 77.441406 108.707031 77.097656 107.820312 76.796875 C 106.933594 76.496094 106.035156 76.242188 105.125 76.027344 C 104.214844 75.816406 103.292969 75.648438 102.367188 75.527344 C 101.4375 75.40625 100.507812 75.328125 99.570312 75.296875 C 98.636719 75.265625 97.703125 75.28125 96.769531 75.34375 C 95.835938 75.40625 94.90625 75.511719 93.984375 75.664062 C 93.058594 75.816406 92.144531 76.011719 91.242188 76.253906 C 90.339844 76.496094 89.449219 76.78125 88.574219 77.113281 C 87.695312 77.441406 86.839844 77.8125 86 78.226562 C 85.160156 78.640625 84.34375 79.09375 83.550781 79.589844 C 82.753906 80.082031 81.988281 80.613281 81.242188 81.183594 C 80.5 81.753906 79.789062 82.359375 79.105469 82.996094 C 78.421875 83.636719 77.773438 84.308594 77.15625 85.011719 C 76.539062 85.714844 75.957031 86.449219 75.414062 87.207031 C 74.867188 87.96875 74.359375 88.753906 73.890625 89.5625 L 37.859375 151.851562 C 37.394531 152.664062 36.96875 153.496094 36.585938 154.351562 C 36.199219 155.203125 35.859375 156.074219 35.558594 156.960938 C 35.261719 157.847656 35.003906 158.746094 34.792969 159.660156 C 34.582031 160.570312 34.417969 161.492188 34.296875 162.421875 C 34.175781 163.347656 34.101562 164.28125 34.074219 165.21875 C 34.042969 166.152344 34.0625 167.085938 34.125 168.023438 C 34.1875 168.957031 34.296875 169.882812 34.449219 170.808594 C 34.605469 171.730469 34.804688 172.644531 35.046875 173.546875 C 35.292969 174.453125 35.578125 175.34375 35.910156 176.21875 C 36.242188 177.09375 36.617188 177.949219 37.03125 178.789062 C 37.445312 179.628906 37.902344 180.445312 38.398438 181.238281 C 38.894531 182.03125 39.425781 182.800781 40 183.542969 C 40.570312 184.285156 41.175781 184.996094 41.816406 185.679688 C 42.457031 186.359375 43.132812 187.011719 43.835938 187.625 C 44.542969 188.242188 45.273438 188.820312 46.035156 189.367188 C 46.796875 189.910156 47.585938 190.414062 48.398438 190.882812 C 49.207031 191.351562 50.039062 191.777344 50.890625 192.164062 C 51.742188 192.550781 52.613281 192.894531 53.5 193.191406 C 54.382812 193.492188 55.28125 193.75 56.195312 193.964844 C 57.105469 194.175781 58.023438 194.34375 58.953125 194.464844 C 59.878906 194.585938 60.8125 194.664062 61.746094 194.695312 C 62.683594 194.726562 63.617188 194.710938 64.550781 194.648438 C 65.484375 194.585938 66.414062 194.480469 67.335938 194.328125 C 68.257812 194.175781 69.171875 193.980469 70.074219 193.738281 C 70.980469 193.496094 71.871094 193.207031 72.746094 192.878906 C 73.621094 192.550781 74.480469 192.179688 75.316406 191.765625 C 76.15625 191.351562 76.972656 190.898438 77.769531 190.402344 C 78.5625 189.910156 79.332031 189.375 80.074219 188.808594 C 80.816406 188.238281 81.53125 187.632812 82.210938 186.992188 C 82.894531 186.355469 83.546875 185.683594 84.164062 184.980469 C 84.78125 184.277344 85.359375 183.542969 85.90625 182.785156 C 86.453125 182.023438 86.957031 181.238281 87.425781 180.429688 L 123.390625 118.140625 C 123.859375 117.328125 124.289062 116.496094 124.675781 115.644531 C 125.0625 114.792969 125.40625 113.921875 125.707031 113.035156 C 126.007812 112.152344 126.261719 111.25 126.476562 110.339844 C 126.6875 109.429688 126.855469 108.507812 126.976562 107.582031 C 127.101562 106.652344 127.175781 105.722656 127.207031 104.785156 C 127.238281 103.851562 127.222656 102.914062 127.160156 101.980469 C 127.097656 101.046875 126.992188 100.117188 126.839844 99.195312 C 126.6875 98.273438 126.488281 97.359375 126.246094 96.453125 C 126.003906 95.550781 125.71875 94.660156 125.386719 93.785156 C 125.058594 92.910156 124.683594 92.050781 124.269531 91.210938 C 123.855469 90.371094 123.402344 89.554688 122.90625 88.761719 C 122.414062 87.964844 121.878906 87.199219 121.308594 86.457031 C 120.738281 85.714844 120.136719 85 119.496094 84.320312 C 118.855469 83.636719 118.183594 82.984375 117.476562 82.371094 C 116.773438 81.753906 116.042969 81.171875 115.28125 80.628906 C 114.519531 80.082031 113.734375 79.578125 112.921875 79.109375 Z M 112.921875 79.109375 " fill-opacity="1" fill-rule="evenodd"/><g clip-path="url(#edc3be583e)"><path fill="#5c1cf8" d="M 218.632812 43.5 C 217.820312 43.03125 216.988281 42.605469 216.136719 42.222656 C 215.285156 41.835938 214.414062 41.492188 213.53125 41.191406 C 212.644531 40.894531 211.746094 40.636719 210.832031 40.425781 C 209.921875 40.214844 209 40.046875 208.074219 39.925781 C 207.144531 39.804688 206.214844 39.726562 205.28125 39.695312 C 204.34375 39.667969 203.410156 39.683594 202.476562 39.746094 C 201.542969 39.804688 200.613281 39.914062 199.691406 40.066406 C 198.769531 40.21875 197.855469 40.417969 196.949219 40.660156 C 196.046875 40.902344 195.15625 41.1875 194.28125 41.515625 C 193.40625 41.847656 192.550781 42.21875 191.710938 42.632812 C 190.871094 43.046875 190.054688 43.5 189.257812 43.996094 C 188.464844 44.488281 187.695312 45.019531 186.953125 45.589844 C 186.210938 46.160156 185.5 46.765625 184.816406 47.40625 C 184.132812 48.042969 183.484375 48.714844 182.867188 49.417969 C 182.25 50.121094 181.667969 50.855469 181.121094 51.613281 C 180.578125 52.375 180.070312 53.160156 179.601562 53.96875 L 119.84375 157.460938 C 119.375 158.269531 118.945312 159.101562 118.558594 159.953125 C 118.171875 160.804688 117.828125 161.671875 117.523438 162.558594 C 117.222656 163.441406 116.964844 164.339844 116.75 165.253906 C 116.539062 166.164062 116.371094 167.082031 116.246094 168.007812 C 116.125 168.9375 116.046875 169.867188 116.015625 170.800781 C 115.980469 171.738281 115.996094 172.671875 116.054688 173.605469 C 116.117188 174.539062 116.222656 175.46875 116.371094 176.390625 C 116.523438 177.3125 116.71875 178.226562 116.960938 179.128906 C 117.203125 180.035156 117.488281 180.925781 117.816406 181.800781 C 118.144531 182.675781 118.515625 183.535156 118.925781 184.375 C 119.339844 185.214844 119.792969 186.03125 120.285156 186.824219 C 120.777344 187.621094 121.308594 188.390625 121.878906 189.132812 C 122.445312 189.875 123.050781 190.589844 123.6875 191.273438 C 124.328125 191.957031 125 192.605469 125.699219 193.222656 C 126.402344 193.839844 127.136719 194.421875 127.894531 194.96875 C 128.65625 195.515625 129.4375 196.023438 130.25 196.488281 C 131.058594 196.957031 131.890625 197.386719 132.742188 197.769531 C 133.59375 198.15625 134.464844 198.5 135.351562 198.800781 C 136.234375 199.101562 137.136719 199.359375 138.046875 199.570312 C 138.957031 199.785156 139.875 199.949219 140.804688 200.074219 C 141.730469 200.195312 142.664062 200.273438 143.597656 200.300781 C 144.535156 200.332031 145.46875 200.316406 146.402344 200.257812 C 147.335938 200.195312 148.265625 200.089844 149.1875 199.9375 C 150.109375 199.785156 151.023438 199.585938 151.929688 199.34375 C 152.832031 199.101562 153.722656 198.816406 154.597656 198.488281 C 155.472656 198.15625 156.332031 197.785156 157.171875 197.371094 C 158.007812 196.957031 158.828125 196.503906 159.621094 196.011719 C 160.414062 195.515625 161.183594 194.984375 161.925781 194.414062 C 162.667969 193.847656 163.382812 193.242188 164.066406 192.601562 C 164.746094 191.960938 165.398438 191.292969 166.015625 190.585938 C 166.632812 189.882812 167.214844 189.152344 167.757812 188.390625 C 168.304688 187.632812 168.808594 186.847656 169.277344 186.035156 L 229.121094 82.546875 C 229.585938 81.734375 230.015625 80.902344 230.402344 80.050781 C 230.785156 79.199219 231.128906 78.328125 231.429688 77.441406 C 231.730469 76.554688 231.988281 75.65625 232.199219 74.746094 C 232.414062 73.832031 232.582031 72.914062 232.703125 71.984375 C 232.824219 71.058594 232.902344 70.125 232.933594 69.191406 C 232.964844 68.253906 232.949219 67.320312 232.886719 66.386719 C 232.824219 65.453125 232.71875 64.523438 232.566406 63.601562 C 232.414062 62.675781 232.21875 61.761719 231.976562 60.859375 C 231.734375 59.953125 231.445312 59.0625 231.117188 58.1875 C 230.789062 57.3125 230.417969 56.453125 230.003906 55.613281 C 229.589844 54.773438 229.136719 53.957031 228.640625 53.164062 C 228.148438 52.367188 227.617188 51.597656 227.046875 50.855469 C 226.476562 50.113281 225.871094 49.398438 225.230469 48.714844 C 224.59375 48.035156 223.921875 47.382812 223.21875 46.765625 C 222.515625 46.148438 221.78125 45.566406 221.019531 45.019531 C 220.261719 44.476562 219.476562 43.96875 218.664062 43.5 Z M 218.632812 43.5 " fill-opacity="1" fill-rule="evenodd"/></g><g clip-path="url(#1945d85c48)"><path fill="#5c1cf8" d="M 87.636719 79.109375 C 88.449219 78.640625 89.277344 78.214844 90.132812 77.828125 C 90.984375 77.441406 91.851562 77.097656 92.738281 76.796875 C 93.625 76.496094 94.523438 76.242188 95.433594 76.027344 C 96.347656 75.816406 97.265625 75.648438 98.191406 75.527344 C 99.121094 75.40625 100.050781 75.328125 100.988281 75.296875 C 101.921875 75.265625 102.855469 75.28125 103.789062 75.34375 C 104.722656 75.40625 105.652344 75.511719 106.574219 75.664062 C 107.5 75.816406 108.414062 76.011719 109.316406 76.253906 C 110.21875 76.496094 111.109375 76.78125 111.984375 77.113281 C 112.863281 77.441406 113.71875 77.8125 114.558594 78.226562 C 115.398438 78.640625 116.214844 79.09375 117.007812 79.589844 C 117.804688 80.082031 118.574219 80.613281 119.316406 81.183594 C 120.058594 81.753906 120.769531 82.359375 121.453125 82.996094 C 122.136719 83.636719 122.785156 84.308594 123.402344 85.011719 C 124.019531 85.714844 124.601562 86.449219 125.148438 87.207031 C 125.691406 87.96875 126.199219 88.753906 126.667969 89.5625 L 165.90625 157.460938 C 166.375 158.269531 166.800781 159.101562 167.1875 159.953125 C 167.574219 160.808594 167.917969 161.675781 168.21875 162.5625 C 168.519531 163.449219 168.777344 164.347656 168.988281 165.257812 C 169.199219 166.167969 169.367188 167.089844 169.488281 168.015625 C 169.613281 168.945312 169.6875 169.875 169.71875 170.8125 C 169.75 171.746094 169.734375 172.679688 169.671875 173.613281 C 169.613281 174.546875 169.503906 175.476562 169.351562 176.398438 C 169.199219 177.324219 169.003906 178.234375 168.761719 179.140625 C 168.519531 180.042969 168.234375 180.933594 167.902344 181.808594 C 167.574219 182.683594 167.203125 183.542969 166.789062 184.382812 C 166.375 185.222656 165.921875 186.039062 165.425781 186.832031 C 164.933594 187.628906 164.402344 188.394531 163.832031 189.136719 C 163.261719 189.882812 162.65625 190.59375 162.019531 191.277344 C 161.378906 191.960938 160.707031 192.609375 160.003906 193.226562 C 159.300781 193.84375 158.570312 194.425781 157.808594 194.96875 C 157.046875 195.515625 156.261719 196.023438 155.453125 196.488281 C 154.640625 196.960938 153.808594 197.390625 152.957031 197.777344 C 152.105469 198.167969 151.234375 198.511719 150.347656 198.816406 C 149.460938 199.117188 148.558594 199.375 147.648438 199.589844 C 146.734375 199.804688 145.816406 199.972656 144.886719 200.097656 C 143.957031 200.21875 143.023438 200.296875 142.085938 200.328125 C 141.148438 200.359375 140.214844 200.34375 139.277344 200.285156 C 138.34375 200.222656 137.414062 200.117188 136.488281 199.964844 C 135.5625 199.8125 134.648438 199.617188 133.742188 199.375 C 132.839844 199.132812 131.945312 198.847656 131.070312 198.515625 C 130.191406 198.1875 129.332031 197.8125 128.492188 197.398438 C 127.652344 196.984375 126.835938 196.53125 126.039062 196.035156 C 125.242188 195.539062 124.472656 195.007812 123.730469 194.4375 C 122.984375 193.867188 122.273438 193.257812 121.589844 192.617188 C 120.90625 191.976562 120.253906 191.304688 119.636719 190.597656 C 119.019531 189.894531 118.4375 189.160156 117.894531 188.398438 C 117.347656 187.636719 116.84375 186.847656 116.375 186.035156 L 77.167969 118.140625 C 76.699219 117.328125 76.273438 116.496094 75.886719 115.644531 C 75.5 114.792969 75.15625 113.921875 74.855469 113.035156 C 74.554688 112.148438 74.300781 111.25 74.085938 110.339844 C 73.875 109.429688 73.707031 108.507812 73.585938 107.582031 C 73.464844 106.652344 73.386719 105.722656 73.359375 104.785156 C 73.328125 103.851562 73.34375 102.917969 73.40625 101.980469 C 73.464844 101.046875 73.574219 100.121094 73.726562 99.195312 C 73.878906 98.273438 74.078125 97.359375 74.320312 96.457031 C 74.5625 95.550781 74.847656 94.664062 75.175781 93.785156 C 75.507812 92.910156 75.878906 92.054688 76.292969 91.214844 C 76.707031 90.375 77.160156 89.558594 77.65625 88.761719 C 78.152344 87.96875 78.683594 87.199219 79.253906 86.457031 C 79.824219 85.714844 80.425781 85.003906 81.066406 84.320312 C 81.707031 83.636719 82.378906 82.988281 83.082031 82.371094 C 83.785156 81.753906 84.519531 81.171875 85.28125 80.628906 C 86.039062 80.082031 86.828125 79.578125 87.636719 79.109375 Z M 87.636719 79.109375 " fill-opacity="1" fill-rule="evenodd"/></g></svg>
